<svg id="visual" viewBox="0 0 960 540" width="960" height="540" xmlns="http://www.w3.org/2000/svg" xmlns:xlink="http://www.w3.org/1999/xlink" version="1.1"><rect x="0" y="0" width="960" height="540" fill="#181818"></rect><defs><linearGradient id="grad1_0" x1="43.8%" y1="0%" x2="100%" y2="100%"><stop offset="14.444444444444446%" stop-color="#181818" stop-opacity="1"></stop><stop offset="85.55555555555554%" stop-color="#181818" stop-opacity="1"></stop></linearGradient></defs><defs><linearGradient id="grad2_0" x1="0%" y1="0%" x2="56.3%" y2="100%"><stop offset="14.444444444444446%" stop-color="#181818" stop-opacity="1"></stop><stop offset="85.55555555555554%" stop-color="#181818" stop-opacity="1"></stop></linearGradient></defs><g transform="translate(960, 0)"><path d="M0 351C-51.5 325.4 -103.1 299.7 -158 273.7C-212.9 247.6 -271.2 221.2 -304 175.5C-336.7 129.8 -343.9 64.9 -351 0L0 0Z" fill="#3E3636"></path></g><g transform="translate(0, 540)"><path d="M0 -351C67.2 -345.2 134.4 -339.4 175.5 -304C216.6 -268.6 231.5 -203.6 256.3 -148C281.2 -92.4 316.1 -46.2 351 0L0 0Z" fill="#3E3636"></path></g></svg>